# xmcd
#
# Track frame offsets:
#	150
#	17159
#	29798
#	40287
#	52491
#	65557
#	83096
#	95942
#	107125
#	119743
#	136255
#	148174
#
# Disc length: 2125 seconds
#
# Revision: 1
# Processed by: cddbd v1.5.1PL0 Copyright (c) Steve Scherf et al.
# Submitted via: audiograbber 1.83.01
#
DISCID=c1084b0c
DTITLE=Bonnie Ashley - Look to Him
DYEAR=1900
DGENRE=Gospel
TTITLE0=Lonely Road to Calvery
TTITLE1=I Saw A Man
TTITLE2=No Limit
TTITLE3=Sheltered in the Arms of God
TTITLE4=I Promise You
TTITLE5=Let Your New Life Begin
TTITLE6=I Can't Picture Me Without You
TTITLE7=I Owed A debt
TTITLE8=Book of Life
TTITLE9=I'll Be Praising You
TTITLE10=Avenue of Prayer
TTITLE11=Look to Him
EXTD=This recording dedicated to my Lord and Savior, jesus-Christ through whom 
EXTD=all things are possible as we "Look to Him".
EXTT0=
EXTT1=
EXTT2=
EXTT3=
EXTT4=
EXTT5=
EXTT6=
EXTT7=
EXTT8=
EXTT9=
EXTT10=
EXTT11=
PLAYORDER=
